<?xml version="1.0" encoding="utf-8"?>
<!-- Generator: Adobe Illustrator 24.3.0, SVG Export Plug-In . SVG Version: 6.00 Build 0)  -->
<svg version="1.1" id="Layer_1" xmlns="http://www.w3.org/2000/svg" xmlns:xlink="http://www.w3.org/1999/xlink" x="0px" y="0px"
	 viewBox="0 0 288 288" style="enable-background:new 0 0 288 288;" xml:space="preserve">
<style type="text/css">
	.st0{fill:#73C2FB;}
	.st1{opacity:0.65;fill:#73C2FB;}
	.st2{opacity:0.45;fill:#73C2FB;}
	.st3{opacity:0.8;fill:#73C2FB;}
	.st4{opacity:0.35;fill:#73C2FB;}
	.st5{opacity:0.7;fill:#73C2FB;}
	.st6{opacity:0.55;fill:#73C2FB;}
	.st7{opacity:0.9;fill:#73C2FB;}
	.st8{opacity:0.2;fill:#73C2FB;}
	.st9{opacity:0.5;fill:#73C2FB;}
	.st10{opacity:0.85;fill:#73C2FB;}
	.st11{opacity:0.4;fill:#73C2FB;}
	.st12{opacity:0.75;fill:#73C2FB;}
	.st13{opacity:0.6;fill:#73C2FB;}
	.st14{opacity:0.95;fill:#73C2FB;}
	.st15{font-family:'Campton-Medium';}
	.st16{font-size:7.2121px;}
</style>
<g>
	<g>
		<g>
			<path class="st0" d="M108.45,139.09v1.06h1.05v-1.06C109.51,139.09,108.44,139.1,108.45,139.09z"/>
			<path class="st0" d="M114.51,141.16c0,0.07-0.01,0.14-0.02,0.2c0,0.01,0,0.02,0,0.03c-0.01,0.06-0.04,0.11-0.09,0.14
				c-0.01,0.01-0.01,0.01-0.02,0.01l-1.2,0.93l-0.93,0.72c-0.03,0.01-0.06,0.02-0.09,0.03c0.02,0,0.04,0,0.06,0l-0.18,0.14
				l-0.12,0.09l-0.6,0.47l-0.52,0.4l3.52,3.52h-1.16l-3.01-3.01l-0.02-0.02v-1.16l0.8-0.62l0.03-0.02l0.18-0.14l0.12-0.09l1.53-1.18
				l0.43-0.34c0.01,0,0.01-0.01,0.02-0.01c0.06-0.05,0.09-0.11,0.09-0.19c0-0.03-0.01-0.06-0.02-0.09c0-0.01-0.01-0.02-0.01-0.03
				c-0.15-0.34-0.42-0.63-0.76-0.79c-0.23-0.12-0.48-0.18-0.75-0.18s-0.52,0.06-0.75,0.18h-0.9v-1.05h2.38
				c0.72,0.06,1.34,0.46,1.7,1.05c0.05,0.08,0.09,0.16,0.13,0.25C114.43,140.63,114.5,140.89,114.51,141.16z"/>
		</g>
		<g>
			<path class="st0" d="M112.32,136.18c0,0.46-0.37,0.83-0.83,0.83c-0.46,0-0.83-0.37-0.83-0.83c0-0.46,0.37-0.83,0.83-0.83
				C111.94,135.35,112.32,135.72,112.32,136.18z"/>
			<path class="st1" d="M112.32,150.75c0,0.46-0.37,0.83-0.83,0.83c-0.46,0-0.83-0.37-0.83-0.83c0-0.46,0.37-0.83,0.83-0.83
				C111.94,149.91,112.32,150.29,112.32,150.75z"/>
			<path class="st2" d="M118.77,144.3c-0.46,0-0.83-0.37-0.83-0.83c0-0.46,0.37-0.83,0.83-0.83c0.46,0,0.83,0.37,0.83,0.83
				C119.6,143.92,119.23,144.3,118.77,144.3z"/>
			<path class="st3" d="M104.2,144.3c-0.46,0-0.83-0.37-0.83-0.83c0-0.46,0.37-0.83,0.83-0.83c0.46,0,0.83,0.37,0.83,0.83
				C105.03,143.92,104.66,144.3,104.2,144.3z"/>
			<path class="st4" d="M117.22,138.9c-0.33,0.33-0.85,0.33-1.18,0c-0.33-0.33-0.33-0.85,0-1.18c0.33-0.33,0.85-0.33,1.18,0
				C117.55,138.05,117.55,138.58,117.22,138.9z"/>
			<path class="st5" d="M106.92,149.2c-0.33,0.33-0.85,0.33-1.18,0c-0.33-0.33-0.33-0.85,0-1.18c0.33-0.33,0.85-0.33,1.18,0
				C107.25,148.35,107.25,148.88,106.92,149.2z"/>
			<path class="st6" d="M116.04,149.2c-0.33-0.33-0.33-0.85,0-1.18c0.33-0.33,0.85-0.33,1.18,0c0.33,0.33,0.33,0.85,0,1.18
				C116.9,149.53,116.37,149.53,116.04,149.2z"/>
			<circle class="st7" cx="106.33" cy="138.31" r="0.83"/>
			<path class="st8" d="M115.02,137.04c-0.18,0.43-0.66,0.63-1.09,0.45c-0.43-0.18-0.63-0.66-0.45-1.09
				c0.18-0.43,0.66-0.63,1.09-0.45C115,136.13,115.2,136.62,115.02,137.04z"/>
			<path class="st5" d="M109.49,150.52c-0.18,0.43-0.66,0.63-1.09,0.45c-0.43-0.18-0.63-0.66-0.45-1.09
				c0.18-0.43,0.66-0.63,1.09-0.45C109.46,149.6,109.66,150.09,109.49,150.52z"/>
			<path class="st9" d="M117.9,147c-0.43-0.18-0.63-0.66-0.45-1.09c0.18-0.43,0.66-0.63,1.09-0.45c0.43,0.18,0.63,0.66,0.45,1.09
				C118.82,146.97,118.33,147.18,117.9,147z"/>
			<path class="st10" d="M104.43,141.47c-0.43-0.18-0.63-0.66-0.45-1.09c0.18-0.43,0.66-0.63,1.09-0.45
				c0.43,0.18,0.63,0.66,0.45,1.09C105.34,141.44,104.86,141.64,104.43,141.47z"/>
			<path class="st11" d="M118.53,141.43c-0.43,0.18-0.91-0.02-1.09-0.45c-0.18-0.43,0.02-0.91,0.45-1.09
				c0.43-0.18,0.91,0.02,1.09,0.45C119.15,140.76,118.95,141.25,118.53,141.43z"/>
			<path class="st12" d="M105.08,147.04c-0.43,0.18-0.91-0.02-1.09-0.45s0.02-0.91,0.45-1.09c0.43-0.18,0.91,0.02,1.09,0.45
				C105.71,146.37,105.51,146.86,105.08,147.04z"/>
			<path class="st13" d="M113.52,150.51c-0.18-0.43,0.02-0.91,0.45-1.09c0.43-0.18,0.91,0.02,1.09,0.45
				c0.18,0.43-0.02,0.91-0.45,1.09C114.19,151.13,113.7,150.93,113.52,150.51z"/>
			<path class="st14" d="M107.91,137.06c-0.18-0.43,0.02-0.91,0.45-1.09c0.43-0.18,0.91,0.02,1.09,0.45
				c0.18,0.43-0.02,0.91-0.45,1.09C108.57,137.69,108.08,137.49,107.91,137.06z"/>
		</g>
	</g>
	<text transform="matrix(1 0 0 1 123.643 142.2334)"><tspan x="0" y="0" class="st0 st15 st16">Result processing</tspan><tspan x="0" y="8.65" class="st0 st15 st16">platform</tspan></text>
</g>
</svg>
