<?xml version="1.0" encoding="utf-8"?>
<!-- Generator: Adobe Illustrator 24.3.0, SVG Export Plug-In . SVG Version: 6.00 Build 0)  -->
<svg version="1.1" id="Layer_1" xmlns="http://www.w3.org/2000/svg" xmlns:xlink="http://www.w3.org/1999/xlink" x="0px" y="0px"
	 viewBox="0 0 288 288" style="enable-background:new 0 0 288 288;" xml:space="preserve">
<style type="text/css">
	.st0{fill:#73C2FB;}
	.st1{opacity:0.65;fill:#73C2FB;}
	.st2{opacity:0.45;fill:#73C2FB;}
	.st3{opacity:0.8;fill:#73C2FB;}
	.st4{opacity:0.35;fill:#73C2FB;}
	.st5{opacity:0.7;fill:#73C2FB;}
	.st6{opacity:0.55;fill:#73C2FB;}
	.st7{opacity:0.9;fill:#73C2FB;}
	.st8{opacity:0.2;fill:#73C2FB;}
	.st9{opacity:0.5;fill:#73C2FB;}
	.st10{opacity:0.85;fill:#73C2FB;}
	.st11{opacity:0.4;fill:#73C2FB;}
	.st12{opacity:0.75;fill:#73C2FB;}
	.st13{opacity:0.6;fill:#73C2FB;}
	.st14{opacity:0.95;fill:#73C2FB;}
</style>
<g>
	<g>
		<g>
			<path class="st0" d="M140.97,139.62v1.06h1.05v-1.06C142.03,139.62,140.96,139.64,140.97,139.62z"/>
			<path class="st0" d="M147.03,141.69c0,0.07-0.01,0.14-0.02,0.2c0,0.01,0,0.02,0,0.03c-0.01,0.06-0.04,0.11-0.09,0.14
				c-0.01,0.01-0.01,0.01-0.02,0.01l-1.2,0.93l-0.93,0.72c-0.03,0.01-0.06,0.02-0.09,0.03c0.02,0,0.04,0,0.06,0l-0.18,0.14
				l-0.12,0.09l-0.6,0.47l-0.52,0.4l3.52,3.52h-1.16l-3.01-3.01l-0.02-0.02v-1.16l0.8-0.62l0.03-0.02l0.18-0.14l0.12-0.09l1.53-1.18
				l0.43-0.34c0.01,0,0.01-0.01,0.02-0.01c0.06-0.05,0.09-0.11,0.09-0.19c0-0.03-0.01-0.06-0.02-0.09c0-0.01-0.01-0.02-0.01-0.03
				c-0.15-0.34-0.42-0.63-0.76-0.79c-0.23-0.12-0.48-0.18-0.75-0.18s-0.52,0.06-0.75,0.18h-0.9v-1.05h2.38
				c0.72,0.06,1.34,0.46,1.7,1.05c0.05,0.08,0.09,0.16,0.13,0.25C146.95,141.16,147.01,141.42,147.03,141.69z"/>
		</g>
		<g>
			<path class="st0" d="M144.83,136.72c0,0.46-0.37,0.83-0.83,0.83s-0.83-0.37-0.83-0.83s0.37-0.83,0.83-0.83
				S144.83,136.26,144.83,136.72z"/>
			<path class="st1" d="M144.83,151.28c0,0.46-0.37,0.83-0.83,0.83s-0.83-0.37-0.83-0.83s0.37-0.83,0.83-0.83
				S144.83,150.82,144.83,151.28z"/>
			<path class="st2" d="M151.28,144.83c-0.46,0-0.83-0.37-0.83-0.83c0-0.46,0.37-0.83,0.83-0.83c0.46,0,0.83,0.37,0.83,0.83
				C152.12,144.46,151.74,144.83,151.28,144.83z"/>
			<path class="st3" d="M136.72,144.83c-0.46,0-0.83-0.37-0.83-0.83c0-0.46,0.37-0.83,0.83-0.83c0.46,0,0.83,0.37,0.83,0.83
				C137.55,144.46,137.18,144.83,136.72,144.83z"/>
			<path class="st4" d="M149.74,139.44c-0.33,0.33-0.85,0.33-1.18,0s-0.33-0.85,0-1.18c0.33-0.33,0.85-0.33,1.18,0
				C150.07,138.59,150.07,139.11,149.74,139.44z"/>
			<path class="st5" d="M139.44,149.74c-0.33,0.33-0.85,0.33-1.18,0c-0.33-0.33-0.33-0.85,0-1.18c0.33-0.33,0.85-0.33,1.18,0
				C139.77,148.89,139.77,149.41,139.44,149.74z"/>
			<path class="st6" d="M148.56,149.74c-0.33-0.33-0.33-0.85,0-1.18c0.33-0.33,0.85-0.33,1.18,0c0.33,0.33,0.33,0.85,0,1.18
				C149.41,150.07,148.89,150.07,148.56,149.74z"/>
			<circle class="st7" cx="138.85" cy="138.85" r="0.83"/>
			<path class="st8" d="M147.54,137.58c-0.18,0.43-0.66,0.63-1.09,0.45c-0.43-0.18-0.63-0.66-0.45-1.09
				c0.18-0.43,0.66-0.63,1.09-0.45C147.51,136.67,147.72,137.15,147.54,137.58z"/>
			<path class="st5" d="M142,151.05c-0.18,0.43-0.66,0.63-1.09,0.45c-0.43-0.18-0.63-0.66-0.45-1.09c0.18-0.43,0.66-0.63,1.09-0.45
				S142.18,150.63,142,151.05z"/>
			<path class="st9" d="M150.42,147.54c-0.43-0.18-0.63-0.66-0.45-1.09c0.18-0.43,0.66-0.63,1.09-0.45
				c0.43,0.18,0.63,0.66,0.45,1.09C151.33,147.51,150.85,147.72,150.42,147.54z"/>
			<path class="st10" d="M136.95,142c-0.43-0.18-0.63-0.66-0.45-1.09c0.18-0.43,0.66-0.63,1.09-0.45c0.43,0.18,0.63,0.66,0.45,1.09
				C137.86,141.97,137.37,142.18,136.95,142z"/>
			<path class="st11" d="M151.04,141.96c-0.43,0.18-0.91-0.02-1.09-0.45c-0.18-0.43,0.02-0.91,0.45-1.09s0.91,0.02,1.09,0.45
				C151.67,141.3,151.47,141.79,151.04,141.96z"/>
			<path class="st12" d="M137.6,147.58c-0.43,0.18-0.91-0.02-1.09-0.45s0.02-0.91,0.45-1.09c0.43-0.18,0.91,0.02,1.09,0.45
				C138.23,146.91,138.03,147.4,137.6,147.58z"/>
			<path class="st13" d="M146.04,151.04c-0.18-0.43,0.02-0.91,0.45-1.09c0.43-0.18,0.91,0.02,1.09,0.45
				c0.18,0.43-0.02,0.91-0.45,1.09C146.7,151.67,146.21,151.47,146.04,151.04z"/>
			<path class="st14" d="M140.42,137.6c-0.18-0.43,0.02-0.91,0.45-1.09c0.43-0.18,0.91,0.02,1.09,0.45
				c0.18,0.43-0.02,0.91-0.45,1.09C141.09,138.23,140.6,138.03,140.42,137.6z"/>
		</g>
	</g>
</g>
</svg>
