<svg id="Layer_1" data-name="Layer 1" xmlns="http://www.w3.org/2000/svg" viewBox="0 0 136.42 28.7"><defs><style>.cls-1,.cls-10,.cls-11,.cls-12,.cls-13,.cls-14,.cls-15,.cls-16,.cls-2,.cls-3,.cls-4,.cls-5,.cls-6,.cls-7,.cls-8,.cls-9{fill:#73c2fb;}.cls-2{opacity:0.65;}.cls-3{opacity:0.45;}.cls-4{opacity:0.8;}.cls-5{opacity:0.35;}.cls-6{opacity:0.7;}.cls-7{opacity:0.55;}.cls-8{opacity:0.9;}.cls-9{opacity:0.2;}.cls-10{opacity:0.5;}.cls-11{opacity:0.85;}.cls-12{opacity:0.4;}.cls-13{opacity:0.75;}.cls-14{opacity:0.6;}.cls-15{opacity:0.95;}.cls-16{font-size:12px;font-family:Campton-Medium, Campton;font-weight:500;}.cls-17{letter-spacing:-0.04em;}.cls-18{letter-spacing:-0.01em;}.cls-19{letter-spacing:-0.01em;}.cls-20{letter-spacing:-0.02em;}.cls-21{letter-spacing:-0.01em;}.cls-22{letter-spacing:0em;}.cls-23{letter-spacing:0em;}.cls-24{letter-spacing:-0.01em;}.cls-25{letter-spacing:0em;}.cls-26{letter-spacing:0em;}.cls-27{letter-spacing:-0.01em;}.cls-28{letter-spacing:-0.01em;}</style></defs><path class="cls-1" d="M85.33,137.05v1.69H87v-1.69S85.31,137.07,85.33,137.05Z" transform="translate(-75.79 -129.65)"/><path class="cls-1" d="M95,140.34c0,.11,0,.21,0,.32v0a.43.43,0,0,1-.14.23l0,0-1.91,1.48-1.49,1.15-.15,0h.09l-.28.22-.19.15-1,.73-.83.64L94.62,151H92.78L88,146.16l0,0v-1.84l1.26-1,0,0,.28-.21.19-.15L92.17,141l.69-.54a0,0,0,0,0,0,0,.38.38,0,0,0,.15-.3.33.33,0,0,0,0-.15l0,0a2.59,2.59,0,0,0-2.39-1.55,2.68,2.68,0,0,0-1.2.28H88v-1.66h3.78a3.52,3.52,0,0,1,2.7,1.66,3,3,0,0,1,.21.4A3.53,3.53,0,0,1,95,140.34Z" transform="translate(-75.79 -129.65)"/><path class="cls-1" d="M91.61,131.12a1.48,1.48,0,1,1-1.47-1.47A1.47,1.47,0,0,1,91.61,131.12Z" transform="translate(-75.79 -129.65)"/><path class="cls-2" d="M91.61,156.88a1.48,1.48,0,1,1-1.47-1.48A1.47,1.47,0,0,1,91.61,156.88Z" transform="translate(-75.79 -129.65)"/><path class="cls-3" d="M103,145.47a1.47,1.47,0,1,1,1.48-1.47A1.47,1.47,0,0,1,103,145.47Z" transform="translate(-75.79 -129.65)"/><path class="cls-4" d="M77.26,145.47A1.47,1.47,0,1,1,78.74,144,1.47,1.47,0,0,1,77.26,145.47Z" transform="translate(-75.79 -129.65)"/><path class="cls-5" d="M100.29,135.94a1.49,1.49,0,0,1-2.09,0,1.47,1.47,0,0,1,0-2.09,1.48,1.48,0,1,1,2.09,2.09Z" transform="translate(-75.79 -129.65)"/><path class="cls-6" d="M82.08,154.15a1.48,1.48,0,1,1,0-2.09A1.49,1.49,0,0,1,82.08,154.15Z" transform="translate(-75.79 -129.65)"/><path class="cls-7" d="M98.2,154.15a1.47,1.47,0,0,1,0-2.09,1.48,1.48,0,1,1,0,2.09Z" transform="translate(-75.79 -129.65)"/><circle class="cls-8" cx="5.25" cy="5.25" r="1.47"/><path class="cls-9" d="M96.4,132.65a1.48,1.48,0,1,1-.81-1.92A1.48,1.48,0,0,1,96.4,132.65Z" transform="translate(-75.79 -129.65)"/><path class="cls-6" d="M86.61,156.47a1.48,1.48,0,1,1-.81-1.93A1.48,1.48,0,0,1,86.61,156.47Z" transform="translate(-75.79 -129.65)"/><path class="cls-10" d="M101.49,150.26a1.48,1.48,0,1,1,1.92-.81A1.48,1.48,0,0,1,101.49,150.26Z" transform="translate(-75.79 -129.65)"/><path class="cls-11" d="M77.67,140.47a1.48,1.48,0,1,1,1.92-.8A1.47,1.47,0,0,1,77.67,140.47Z" transform="translate(-75.79 -129.65)"/><path class="cls-12" d="M102.59,140.4a1.47,1.47,0,1,1,.79-1.93A1.48,1.48,0,0,1,102.59,140.4Z" transform="translate(-75.79 -129.65)"/><path class="cls-13" d="M78.82,150.32a1.47,1.47,0,1,1,.8-1.93A1.47,1.47,0,0,1,78.82,150.32Z" transform="translate(-75.79 -129.65)"/><path class="cls-14" d="M93.74,156.45a1.47,1.47,0,1,1,1.93.79A1.47,1.47,0,0,1,93.74,156.45Z" transform="translate(-75.79 -129.65)"/><path class="cls-15" d="M83.82,132.69a1.47,1.47,0,1,1,1.93.79A1.47,1.47,0,0,1,83.82,132.69Z" transform="translate(-75.79 -129.65)"/><text class="cls-16" transform="translate(34.94 10.72)"><tspan class="cls-17">R</tspan><tspan class="cls-18" x="7.7" y="0">e</tspan><tspan x="14.51" y="0">sult </tspan><tspan class="cls-19" x="39.24" y="0">p</tspan><tspan class="cls-20" x="46.48" y="0">r</tspan><tspan x="50.78" y="0">oc</tspan><tspan class="cls-18" x="64.86" y="0">e</tspan><tspan class="cls-21" x="71.66" y="0">s</tspan><tspan class="cls-22" x="77.72" y="0">s</tspan><tspan class="cls-23" x="83.84" y="0">i</tspan><tspan class="cls-24" x="87.16" y="0">n</tspan><tspan class="cls-23" x="94.13" y="0">g</tspan><tspan class="cls-25" x="0" y="14.4">p</tspan><tspan class="cls-26" x="7.3" y="14.4">l</tspan><tspan class="cls-23" x="10.22" y="14.4">a</tspan><tspan class="cls-27" x="17.58" y="14.4">t</tspan><tspan class="cls-28" x="22.76" y="14.4">f</tspan><tspan class="cls-27" x="27.73" y="14.4">o</tspan><tspan x="34.79" y="14.4">rm</tspan></text></svg>